<svg version="1.1" id="Capa_1"
	xmlns="http://www.w3.org/2000/svg"
	xmlns:xlink="http://www.w3.org/1999/xlink" x="0px" y="0px" viewBox="0 0 1823 591" style="enable-background:new 0 0 1823 591;" xml:space="preserve">
	<style type="text/css">
	.st0{fill:#FFFFFF;}
	</style>
	<path class="st0" d="M739.76,310.12H518.22c-4.16,0-6.75,2.59-6.75,6.74v44.62c0,4.15,2.59,6.75,6.75,6.75h221.55
	c4.15,0,6.74-2.6,6.74-6.75v-44.62C746.51,312.71,743.92,310.12,739.76,310.12"/>
	<path class="st0" d="M739.76,157.58H518.22c-4.16,0-6.75,2.6-6.75,6.74v44.63c0,4.14,2.59,6.74,6.75,6.74h221.55
	c4.15,0,6.74-2.6,6.74-6.74v-44.63C746.51,160.18,743.92,157.58,739.76,157.58"/>
	<path class="st0" d="M739.76,5.03H518.22c-4.16,0-6.75,2.59-6.75,6.74v44.63c0,4.14,2.59,6.74,6.75,6.74h221.55
	c4.15,0,6.74-2.6,6.74-6.74V11.77C746.51,7.62,743.92,5.03,739.76,5.03"/>
	<path class="st0" d="M1107.63,186.06c-0.25-86.46-57.31-172.75-170.69-180.52c-5.71-0.51-15.57-0.51-29.58-0.51h-86.14
	c-4.14,0-6.74,2.59-6.74,6.74v44.62c0,4.15,2.6,6.75,6.74,6.75h98.07c34.35,0,61.46,10.73,81.45,27.66
	c0.38,0.31,0.79,0.59,1.15,0.91c0.44,0.38,0.81,0.8,1.24,1.19c26.29,23.74,39.42,58.59,39.45,93.47
	c-0.04,34.88-13.17,69.72-39.45,93.45c-0.43,0.39-0.8,0.83-1.24,1.2c-0.36,0.31-0.78,0.59-1.15,0.9
	c-19.98,16.93-47.1,27.67-81.45,27.67h-98.07c-4.14,0-6.74,2.59-6.74,6.74v44.62c0,4.15,2.6,6.74,6.74,6.74h86.14h0.24l-0.24,0.53
	c14.01,0,23.86,0,29.58-0.53c8.99-0.81,17.6-2.15,25.89-3.86c63.88-12.07,106.7-51.13,128.31-99.37
	c10.99-24.27,16.51-50.93,16.51-77.85c0-0.09,0-0.16,0-0.25c0-0.09,0-0.18,0-0.26L1107.63,186.06"/>
	<path class="st0" d="M1404.51,310.12h-221.55c-4.15,0-6.74,2.59-6.74,6.74v44.62c0,4.15,2.59,6.75,6.74,6.75h221.55
	c4.15,0,6.74-2.6,6.74-6.75v-44.62C1411.25,312.71,1408.66,310.12,1404.51,310.12"/>
	<path class="st0" d="M1404.51,5.03h-221.55c-4.15,0-6.74,2.59-6.74,6.74v44.63c0,4.14,2.59,6.74,6.74,6.74h221.55
	c4.15,0,6.74-2.6,6.74-6.74V11.77C1411.25,7.62,1408.66,5.03,1404.51,5.03"/>
	<path class="st0" d="M1404.51,157.58h-221.55c-4.15,0-6.74,2.6-6.74,6.74v44.63c0,4.14,2.59,6.74,6.74,6.74h221.55
	c4.15,0,6.74-2.6,6.74-6.74v-44.63C1411.25,160.18,1408.66,157.58,1404.51,157.58"/>
	<path class="st0" d="M1822.1,367.19L1658.14,9.71c-1.04-2.6-4.15-4.68-7.27-4.68c-3.11,0-6.74,2.08-7.79,4.68l-163.95,357.48
	c-1.56,3.64,0,6.23,4.15,6.23h51.36c3.64,0,7.79-2.59,9.34-6.23l100.66-217.92c2.08-4.15,4.15-6.23,6.23-6.23s4.15,2.08,6.23,6.23
	l46.7,101.69l53.45,116.23c1.55,3.64,5.7,6.23,9.85,6.23h50.85C1822.1,373.42,1823.65,370.83,1822.1,367.19"/>
	<path class="st0" d="M381.96,5.03h-7.27c-4.15,0-8.29,2.59-9.85,5.7L237.21,253.04c-2.08,4.15-4.68,5.72-6.75,5.72
	c-3.78,1.64-6.67,0-6.67,0c-2.08,0-4.68-1.56-6.75-5.72L89.41,10.74c-1.56-3.11-5.7-5.7-9.87-5.7h-7.25c-4.15,0-7.27,2.59-7.79,6.74
	l-52.4,349.7c-0.53,4.16,1.55,6.75,5.7,6.75h47.73c4.15,0,7.27-2.59,7.79-6.75l28.54-186.27c1.04-8.29,4.66-9.33,8.82-1.55
	L210.3,362c2.08,3.64,5.7,6.23,9.85,6.23h6.68h0.59h6.68c4.15,0,7.78-2.59,9.85-6.23l99.62-188.35c4.15-7.78,7.78-6.74,8.82,1.55
	l28.54,186.27c0.53,4.16,3.64,6.75,7.78,6.75h47.75c4.15,0,6.23-2.59,5.7-6.75l-52.4-349.7C389.23,7.62,386.12,5.03,381.96,5.03"/>
	<path class="st0" d="M178.68,488.7h-34.43c-0.98-4.43-2.79-8.36-5.43-11.81c-2.64-3.44-5.92-6.36-9.85-8.77
	c-3.93-2.41-8.4-4.22-13.4-5.46c-5.01-1.22-10.39-1.84-16.15-1.84c-10.26,0-19.34,2.01-27.25,6.03c-7.92,4.02-14.12,9.9-18.6,17.62
	c-4.48,7.73-6.72,17.15-6.72,28.27c0,11.31,2.25,20.83,6.77,28.56c4.51,7.73,10.71,13.55,18.6,17.48
	c7.89,3.92,16.92,5.89,27.12,5.89c5.64,0,10.94-0.59,15.88-1.77c4.94-1.18,9.39-2.93,13.35-5.23c3.96-2.31,7.3-5.15,10.03-8.52
	c2.73-3.37,4.62-7.22,5.66-11.55l34.43,0.14c-1.29,7.03-4.06,13.62-8.33,19.78c-4.27,6.16-9.84,11.59-16.71,16.29
	c-6.88,4.7-14.92,8.35-24.13,10.98c-9.2,2.62-19.43,3.94-30.65,3.94c-16.57,0-31.37-3.01-44.37-9.03
	c-13.01-6.02-23.26-14.71-30.75-26.07c-7.49-11.36-11.24-24.99-11.24-40.87c0-15.94,3.78-29.57,11.33-40.91
	c7.55-11.34,17.83-20.01,30.84-26.03c13.01-6.02,27.75-9.03,44.19-9.03c10.49,0,20.26,1.16,29.28,3.46
	c9.03,2.31,17.07,5.7,24.12,10.15c7.06,4.45,12.88,9.89,17.45,16.32C174.28,473.14,177.27,480.46,178.68,488.7z"/>
	<path class="st0" d="M350.22,586.69V438.8h70.71c14.48,0,26.65,1.97,36.5,5.92c9.85,3.95,17.3,9.47,22.37,16.57
	c5.06,7.1,7.59,15.37,7.59,24.81c0,9.48-2.56,17.71-7.68,24.66s-12.66,12.32-22.6,16.1c-9.94,3.78-22.16,5.67-36.64,5.67h-50.36
	v-22.24h45.75c8.47,0,15.41-0.93,20.81-2.78c5.4-1.86,9.4-4.57,12.01-8.16c2.61-3.59,3.91-8.01,3.91-13.25
	c0-5.25-1.32-9.74-3.96-13.47c-2.64-3.73-6.66-6.57-12.06-8.52s-12.37-2.93-20.9-2.93h-31.3v125.5H350.22z M447.63,519.67
	l46.68,67.01h-38.11l-45.85-67.01H447.63z"/>
	<path class="st0" d="M504.49,461.26V438.8h150.43v22.45h-58.28v125.43h-33.88V461.26H504.49z"/>
	<path class="st0" d="M715.95,438.8v147.88h-34.16V438.8H715.95z"/>
	<path class="st0" d="M753.05,586.69V438.8h120.78v22.45h-86.63v40.15h78.34v22.45h-78.34v62.82H753.05z"/>
	<path class="st0" d="M939.02,438.8v147.88h-34.16V438.8H939.02z"/>
	<path class="st0" d="M1137.51,488.7h-34.43c-0.99-4.43-2.8-8.36-5.43-11.81c-2.63-3.44-5.92-6.36-9.85-8.77s-8.39-4.22-13.4-5.46
	c-5.01-1.22-10.39-1.84-16.15-1.84c-10.25,0-19.34,2.01-27.25,6.03c-7.91,4.02-14.12,9.9-18.6,17.62
	c-4.48,7.73-6.72,17.15-6.72,28.27c0,11.31,2.26,20.83,6.77,28.56c4.51,7.73,10.71,13.55,18.6,17.48c7.88,3.92,16.92,5.89,27.1,5.89
	c5.66,0,10.95-0.59,15.88-1.77c4.94-1.18,9.4-2.93,13.36-5.23c3.96-2.31,7.3-5.15,10.04-8.52c2.72-3.37,4.62-7.22,5.66-11.55
	l34.43,0.14c-1.29,7.03-4.07,13.62-8.33,19.78c-4.27,6.16-9.84,11.59-16.72,16.29c-6.87,4.7-14.91,8.35-24.12,10.98
	c-9.2,2.62-19.43,3.94-30.65,3.94c-16.58,0-31.37-3.01-44.38-9.03c-13.01-6.02-23.26-14.71-30.75-26.07s-11.24-24.99-11.24-40.87
	c0-15.94,3.78-29.57,11.32-40.91c7.55-11.34,17.83-20.01,30.85-26.03c13.01-6.02,27.74-9.03,44.19-9.03
	c10.49,0,20.25,1.16,29.28,3.46c9.01,2.31,17.05,5.7,24.12,10.15c7.05,4.45,12.87,9.89,17.44,16.32
	C1133.1,473.14,1136.1,480.46,1137.51,488.7z"/>
	<path class="st0" d="M1183.48,586.69h-36.45l66.38-147.88h42.16l66.48,147.88h-36.45l-50.36-117.56h-1.47L1183.48,586.69z"/>
	<path class="st0" d="M1660.32,512.75c0,15.94-3.8,29.57-11.37,40.91c-7.58,11.33-17.89,20.01-30.94,26.03
	c-13.03,6.01-27.81,9.03-44.32,9.03c-16.52,0-31.3-3.02-44.33-9.07c-13.05-6.04-23.36-14.73-30.94-26.07
	c-7.58-11.33-11.37-24.95-11.37-40.83c0-15.94,3.8-29.57,11.37-40.91c7.58-11.34,17.89-20.01,30.94-26.03
	c13.03-6.02,27.81-9.03,44.33-9.03c16.5,0,31.29,3.01,44.32,9.03c13.05,6.02,23.36,14.69,30.94,26.03
	C1656.53,483.17,1660.32,496.81,1660.32,512.75z M1625.98,512.75c0-11.22-2.22-20.69-6.67-28.41c-4.46-7.73-10.61-13.57-18.46-17.55
	c-7.85-3.97-16.9-5.95-27.15-5.95c-10.25,0-19.31,1.98-27.17,5.95c-7.85,3.98-14.01,9.82-18.45,17.55
	c-4.46,7.72-6.68,17.19-6.68,28.41c0,11.21,2.22,20.69,6.68,28.41c4.44,7.72,10.6,13.57,18.45,17.54
	c7.85,3.98,16.92,5.96,27.17,5.96c10.25,0,19.3-1.98,27.15-5.96c7.85-3.97,14.01-9.82,18.46-17.54
	C1623.76,533.43,1625.98,523.96,1625.98,512.75z"/>
	<path class="st0" d="M1787.06,479.45c-0.86-6.3-4.47-11.21-10.82-14.73c-6.35-3.51-14.59-5.27-24.72-5.27
	c-7.12,0-13.23,0.84-18.33,2.52c-5.09,1.69-8.99,3.98-11.69,6.86c-2.71,2.89-4.08,6.19-4.14,9.9c0,3.08,0.9,5.75,2.72,8.01
	c1.81,2.27,4.27,4.18,7.4,5.74c3.13,1.56,6.6,2.87,10.41,3.94c3.8,1.06,7.64,1.95,11.5,2.67l17.68,3.46
	c7.13,1.3,13.98,3.06,20.57,5.27c6.6,2.21,12.52,5,17.78,8.38c5.24,3.37,9.4,7.44,12.47,12.2c3.07,4.77,4.61,10.35,4.61,16.76
	c0,8.66-2.82,16.28-8.48,22.85c-5.64,6.57-13.79,11.7-24.44,15.38c-10.65,3.68-23.52,5.52-38.61,5.52
	c-14.67,0-27.39-1.78-38.16-5.35c-10.77-3.56-19.18-8.76-25.23-15.59c-6.04-6.83-9.31-15.17-9.8-24.98h33.61
	c0.49,5.15,2.51,9.43,6.07,12.85c3.56,3.42,8.21,5.97,13.96,7.66c5.73,1.69,12.16,2.53,19.29,2.53c7.42,0,13.94-0.88,19.56-2.64
	c5.62-1.76,10.01-4.21,13.21-7.37c3.18-3.15,4.82-6.85,4.88-11.09c-0.06-3.85-1.51-7.04-4.33-9.57s-6.77-4.64-11.82-6.36
	c-5.07-1.7-10.97-3.24-17.73-4.58l-21.45-4.33c-15.53-3.13-27.79-7.88-36.78-14.26c-9-6.38-13.5-14.87-13.5-25.45
	c0-8.71,3.02-16.35,9.08-22.89c6.04-6.55,14.28-11.64,24.72-15.27c10.42-3.64,22.25-5.46,35.44-5.46c13.38,0,25.12,1.82,35.22,5.46
	c10.09,3.63,18.03,8.66,23.79,15.09c5.77,6.42,8.74,13.8,8.93,22.13H1787.06z"/>
	<g>
		<rect x="210.59" y="500" class="st0" width="100.53" height="24"/>
		<rect x="210.59" y="562" class="st0" width="100.91" height="24.69"/>
		<rect x="210.59" y="438.8" class="st0" width="100.07" height="24.2"/>
	</g>
	<path class="st0" d="M1455.7,473.03c-7.24-11.03-17.6-19.49-31.07-25.38c-13.47-5.9-29.57-8.85-48.29-8.85h-30.28v23.17h28.34
	c12.76,0,23.46,1.87,32.08,5.6c8.63,3.73,15.14,9.34,19.56,16.83c4.42,7.48,6.63,16.88,6.63,28.19c0,11.31-2.21,20.74-6.63,28.27
	c-4.42,7.53-11.01,13.19-19.79,16.97c-8.79,3.77-19.74,5.66-32.87,5.66h-27.33v23.18h28.99c19.14,0,35.54-2.96,49.2-8.88
	c13.66-5.93,24.12-14.42,31.4-25.49c7.28-11.07,10.91-24.3,10.91-39.72C1466.56,497.25,1462.94,484.06,1455.7,473.03z"/>
</svg>
